name C:\Users\u0101727\Documents\MyRepositories\predictivesimulations\OpenSimModel\subject1\EMG\EMG_gait_27.mot
datacolumns 25
datarows 13
range 2.24100000 2.25300000
endheader
time	HamL_r	TA_r	PerL_r	GL_r	HamM_r	Sol_r	VL_r	VM_r	PerB_l	TA_l	PerL_l	GL_l	GM_l	Sol_l	VL_l	VM_l	AddL_l	RF_l	TFL_l	GluMed_l	HamL_l	HamM_l	GluMed_r	RF_r	
          2.24100000	          0.00462070	          0.00390701	          0.04674152	          0.00419205	          0.00767191	          0.04328442	          0.00574169	          0.00322238	          0.00883606	          0.04833050	          0.00951228	          0.00579177	          0.02609870	          0.00893823	          0.00518877	          0.00444861	          0.00937959	          0.00486773	          0.00513476	          0.00578009	          0.00696825	          0.00480036	          0.02667718	          0.00748468	
          2.24200000	          0.00458940	          0.00388032	          0.04759000	          0.00422379	          0.00770420	          0.04353444	          0.00576083	          0.00323063	          0.00879081	          0.04749414	          0.00942396	          0.00576612	          0.02554903	          0.00887127	          0.00518174	          0.00448447	          0.00947090	          0.00488242	          0.00520587	          0.00588298	          0.00722509	          0.00503740	          0.02660395	          0.00748990	
          2.24300000	          0.00455724	          0.00385352	          0.04845138	          0.00425418	          0.00774346	          0.04378305	          0.00577748	          0.00324050	          0.00874657	          0.04662510	          0.00932927	          0.00574096	          0.02498095	          0.00880238	          0.00517473	          0.00452305	          0.00955886	          0.00489661	          0.00527994	          0.00599103	          0.00749571	          0.00530339	          0.02652123	          0.00749304	
          2.24400000	          0.00452437	          0.00382676	          0.04932386	          0.00428304	          0.00778922	          0.04403158	          0.00579163	          0.00325202	          0.00870306	          0.04572822	          0.00922893	          0.00571624	          0.02439768	          0.00873197	          0.00516794	          0.00456461	          0.00964294	          0.00491017	          0.00535681	          0.00610419	          0.00778037	          0.00559973	          0.02643032	          0.00749452	
          2.24500000	          0.00449092	          0.00380015	          0.05020546	          0.00431032	          0.00784092	          0.04428144	          0.00580329	          0.00326523	          0.00866007	          0.04480837	          0.00912376	          0.00569197	          0.02380214	          0.00866050	          0.00516151	          0.00460942	          0.00972264	          0.00492293	          0.00543636	          0.00622240	          0.00807935	          0.00592776	          0.02633236	          0.00749462	
          2.24600000	          0.00445698	          0.00377379	          0.05109397	          0.00433609	          0.00789789	          0.04453408	          0.00581250	          0.00328016	          0.00861740	          0.04387051	          0.00901455	          0.00566813	          0.02319698	          0.00858845	          0.00515552	          0.00465771	          0.00979767	          0.00493476	          0.00551849	          0.00634555	          0.00839291	          0.00628878	          0.02622828	          0.00749356	
          2.24700000	          0.00442263	          0.00374776	          0.05198680	          0.00436040	          0.00795939	          0.04479101	          0.00581936	          0.00329684	          0.00857484	          0.04291966	          0.00890209	          0.00564469	          0.02258459	          0.00851628	          0.00515000	          0.00470973	          0.00986802	          0.00494551	          0.00560308	          0.00647352	          0.00872128	          0.00668408	          0.02611885	          0.00749146	
          2.24800000	          0.00438790	          0.00372214	          0.05288094	          0.00438332	          0.00802460	          0.04505366	          0.00582400	          0.00331532	          0.00853211	          0.04196065	          0.00878714	          0.00562161	          0.02196713	          0.00844442	          0.00514497	          0.00476565	          0.00993396	          0.00495506	          0.00569002	          0.00660617	          0.00906459	          0.00711489	          0.02600473	          0.00748838	
          2.24900000	          0.00435286	          0.00369701	          0.05377322	          0.00440491	          0.00809260	          0.04532332	          0.00582650	          0.00333561	          0.00848896	          0.04099811	          0.00867048	          0.00559887	          0.02134650	          0.00837323	          0.00514047	          0.00482569	          0.00999584	          0.00496336	          0.00577928	          0.00674337	          0.00942290	          0.00758245	          0.02588667	          0.00748428	
          2.25000000	          0.00431761	          0.00367244	          0.05466042	          0.00442520	          0.00816244	          0.04560119	          0.00582693	          0.00335774	          0.00844514	          0.04003652	          0.00855287	          0.00557644	          0.02072444	          0.00830300	          0.00513652	          0.00489001	          0.01005398	          0.00497045	          0.00587088	          0.00688490	          0.00979615	          0.00808796	          0.02576569	          0.00747909	
          2.25100000	          0.00428231	          0.00364851	          0.05553925	          0.00444420	          0.00823302	          0.04588847	          0.00582529	          0.00338170	          0.00840042	          0.03908012	          0.00843501	          0.00555431	          0.02010243	          0.00823399	          0.00513318	          0.00495880	          0.01010861	          0.00497644	          0.00596486	          0.00703051	          0.01018422	          0.00863256	          0.02564300	          0.00747265	
          2.25200000	          0.00424720	          0.00362531	          0.05640634	          0.00446186	          0.00830322	          0.04618652	          0.00582155	          0.00340750	          0.00835457	          0.03813283	          0.00831749	          0.00553244	          0.01948171	          0.00816640	          0.00513045	          0.00503220	          0.01015994	          0.00498145	          0.00606121	          0.00717984	          0.01058684	          0.00921730	          0.02551974	          0.00746483	
          2.25300000	          0.00421252	          0.00360293	          0.05725815	          0.00447808	          0.00837180	          0.04649705	          0.00581568	          0.00343511	          0.00830734	          0.03719812	          0.00820082	          0.00551079	          0.01886336	          0.00810039	          0.00512829	          0.00511029	          0.01020818	          0.00498560	          0.00615991	          0.00733249	          0.01100366	          0.00984313	          0.02539683	          0.00745558	
